<?xml version="1.0" standalone="no"?>
<!DOCTYPE svg PUBLIC "-//W3C//DTD SVG 20010904//EN"
 "http://www.w3.org/TR/2001/REC-SVG-20010904/DTD/svg10.dtd">
<svg version="1.0" xmlns="http://www.w3.org/2000/svg"
 width="700.000000pt" height="700.000000pt" viewBox="0 0 700.000000 700.000000"
 preserveAspectRatio="xMidYMid meet">
<metadata>
Created by potrace 1.14, written by Peter Selinger 2001-2017
</metadata>
<g transform="translate(0.000000,700.000000) scale(0.100000,-0.100000)"
fill="#000000" stroke="none">
<path d="M2708 6995 c-1 -2 -32 -6 -68 -9 -280 -24 -627 -111 -848 -212 -29
-13 -55 -24 -58 -24 -7 0 -167 -80 -244 -122 -121 -66 -338 -216 -435 -299
-198 -171 -328 -306 -457 -478 -32 -42 -61 -80 -66 -86 -4 -5 -35 -53 -68
-105 -177 -276 -308 -583 -383 -900 -30 -123 -36 -156 -46 -235 -3 -22 -8 -49
-10 -60 -20 -95 -28 -513 -13 -660 11 -99 18 -156 24 -185 3 -14 8 -36 10 -50
56 -336 205 -726 388 -1015 31 -49 62 -99 69 -109 6 -11 15 -25 20 -30 225
-311 479 -559 773 -757 133 -89 177 -114 349 -198 333 -163 676 -256 1055
-286 70 -6 382 -6 435 0 22 2 65 6 95 10 78 7 131 14 160 20 14 2 41 7 60 10
30 5 80 16 143 31 9 2 25 6 36 8 98 22 326 101 456 158 155 68 382 193 454
249 26 21 41 24 41 10 0 -5 43 -85 96 -177 53 -93 108 -189 122 -214 14 -25
68 -115 120 -200 52 -85 103 -169 113 -186 34 -61 224 -349 231 -352 5 -2 8
-8 8 -13 0 -17 119 -165 182 -225 35 -33 88 -77 118 -97 30 -20 60 -40 65 -45
6 -4 44 -24 86 -44 153 -74 312 -112 464 -112 93 -1 104 2 166 32 183 92 446
342 572 543 70 112 79 147 72 254 -4 50 -9 93 -11 96 -2 3 -6 19 -8 35 -12 60
-15 73 -46 165 -67 203 -199 388 -370 518 -102 78 -597 401 -615 401 -2 0 -51
29 -110 65 -58 36 -108 65 -111 65 -3 0 -28 15 -57 33 -29 18 -77 47 -107 64
-52 28 -242 135 -248 139 -2 1 27 48 64 105 83 127 189 332 238 459 21 52 41
104 46 115 41 95 112 370 136 525 3 25 8 53 10 63 2 10 6 48 10 85 3 37 8 85
10 107 6 55 6 371 0 420 -2 22 -7 72 -11 110 -4 39 -9 79 -11 90 -2 10 -6 37
-10 60 -5 34 -20 114 -28 150 -30 134 -39 173 -46 190 -5 11 -23 65 -40 120
-18 55 -36 104 -41 110 -5 5 -9 15 -9 22 0 23 -98 233 -162 348 -91 165 -192
311 -332 483 -6 7 -65 68 -131 136 -126 130 -253 243 -356 316 -19 13 -38 28
-44 32 -62 51 -289 185 -427 251 -105 51 -362 152 -404 160 -11 2 -39 9 -64
16 -25 7 -47 13 -50 13 -3 0 -15 4 -28 9 -13 5 -37 11 -55 14 -18 3 -48 10
-67 15 -19 5 -55 12 -80 15 -25 3 -52 8 -60 10 -8 2 -40 7 -70 11 -30 3 -66 8
-80 10 -30 6 -507 14 -512 9z"/>
</g>
</svg>
